<?xml version="1.0" encoding="UTF-8"?>
<svg xmlns="http://www.w3.org/2000/svg" xmlns:xlink="http://www.w3.org/1999/xlink" viewBox="0 0 280 280">
  <defs>
    <style>
      .cls-1 {
        fill: url(#linear-gradient-3);
      }

      .cls-2 {
        fill: url(#linear-gradient-2);
      }

      .cls-3 {
        fill: url(#linear-gradient);
      }

      .cls-4 {
        fill: #fff;
      }

      .cls-5 {
        fill: #42210b;
      }
    </style>
    <linearGradient id="linear-gradient" x1="53.52" y1="213.37" x2="216.22" y2="50.67" gradientUnits="userSpaceOnUse">
      <stop offset="0" stop-color="#ffa725"/>
      <stop offset="1" stop-color="#fff"/>
    </linearGradient>
    <linearGradient id="linear-gradient-2" x1="186.44" y1="193.67" x2="236.55" y2="143.56" xlink:href="#linear-gradient"/>
    <linearGradient id="linear-gradient-3" x1="73.23" y1="109.53" x2="123.34" y2="59.42" gradientTransform="translate(42.09 -28.9) rotate(23.36)" xlink:href="#linear-gradient"/>
  </defs>
  <g id="CircleProfile">
    <circle class="cls-4" cx="140" cy="140" r="134.5"/>
  </g>
  <g id="Tail">
    <path class="cls-3" d="M260.84,103.38s-42.35-48.41-123.04-25.46c-30.19,8.59-39.6,32.53-70.71,43.84-10.12,3.68-17.68-2.12-17.68-2.12-16.97,26.87-31.82,26.16-31.82,26.16,0,0,29.7,49.5,67.88,57.98,38.18,8.49,72.75,6.45,98.99-19.8,28.02-28.02,25.8-33.23,23.33-33.23-3,0-8.99,4.29-8.99,4.29,28.79-56.62,72.63-36.82,62.02-51.67Z"/>
  </g>
  <g id="Wind">
    <path class="cls-2" d="M232.49,141.97s-11.77,6.53-17,17c-3,6-11,23-25,31,12-2,18-10,21-15,7.01-11.69,7.19-18.68,21-33Z"/>
    <path class="cls-1" d="M128.73,71.66s-13.28.78-22.24,8.31c-5.13,4.32-19.33,17.31-35.35,19.1,11.81,2.92,20.49-2.04,25.23-5.44,11.07-7.95,14.01-14.3,32.36-21.97Z"/>
  </g>
  <g id="TailPattern">
    <g>
      <path class="cls-5" d="M73.48,124.38l-.34,5.71c.16-.1.8-.17,1.92-.22,1.12-.05,1.86-.04,2.21.02l1.78.82c.45.29.98.78,1.58,1.49.38.83-.08,1.47-1.39,1.92-1.25.19-2.05.29-2.4.29l-3.79.19v2.21c.19,3.94.29,6.22.29,6.86.16.96.24,1.54.24,1.73v1.06c0,.61-.08.99-.24,1.15-.38.48-.62.74-.72.77-1.31.51-2.7.19-4.18-.96l-.77-1.01c0-.13-.1-.61-.29-1.44.03-.1-.1-.62-.38-1.58,0-.19.04-.43.12-.72.08-.29.12-.61.12-.96s-.08-.72-.24-1.1c0-.42-.03-.78-.1-1.1v-.48c.06-.35.1-.73.12-1.13.02-.4.06-.8.14-1.2.08-.4.09-.78.02-1.13v-.14c-.45-.22-.78-.32-.98-.29-.21.03-.43-.07-.67-.31-.24-.24-.38-.47-.41-.7-.03-.22.3-.67,1.01-1.34.06-.13.45-.35,1.15-.67v-.96l.24-2.69c-.1-.86-.1-1.52,0-1.97.1-.45.11-.82.05-1.1l.29-1.06c-1.6.29-2.75.35-3.46.19-.61-.29-.93-.75-.96-1.39-.03-.03.05-.5.24-1.39-.1-.45.29-1.01,1.15-1.68.7-.32,1.38-.54,2.02-.67,1.22-.42,2.3-.69,3.26-.82,1.89-.32,3.41-.59,4.56-.82l2.26-.82c.51-.29.87-.42,1.08-.38.21.03.52-.03.94-.19.06-.16.43-.3,1.1-.43,1.38-.26,2.18-.11,2.4.43.29.06.67.29,1.15.67.1.03.46.66,1.1,1.87.1.26.05.52-.14.79-.19.27-.5.42-.91.46l-1.3.48c-.38.03-.93.21-1.63.53-1.31.35-2.05.53-2.21.53s-.32.02-.48.05c-.48.1-.99.22-1.54.38-.54.16-1.01.24-1.39.24-.9.19-1.39.42-1.49.67-.03.06-.05.16-.05.29l-.1.58v.48Z"/>
      <path class="cls-5" d="M85.05,122.7l.34-2.83.05-1.49c0-.42.08-.74.24-.96l.48-.67c.86-.67,1.42-1.06,1.68-1.15.26-.1.63-.09,1.13.02s.79.22.89.31l.53.43c.29.16.43.42.43.77.16.19.21.34.14.43-.19.22-.51,2.11-.96,5.66l-.38,6.53-.24,1.3c0,.42.02.66.05.72v.86c-.06.64-.13,1.04-.19,1.2,0,.16-.03.34-.1.53.06.06.1.31.1.74s-.05.7-.14.79c-.06.51-.1,1-.1,1.46s.04.94.12,1.44c.08.5.1.98.07,1.46l.19,1.82v.72c.06.58.1,1.04.1,1.39l.24,2.5.19,1.3c.1.54.06,1.07-.12,1.58-.18.51-.44.83-.79.96-.99.42-2.08.14-3.26-.82h-.38c-.22-.26-.4-.61-.53-1.06-.26-.13-.37-.35-.34-.67.03-.32-.03-.61-.19-.86-.16-.26-.24-.48-.24-.67,0-.42-.03-.78-.1-1.1l.05-.38c-.1-.1-.14-.24-.14-.43l-.1-.86v-.38c0-.26,0-.43-.02-.53-.02-.1.02-.26.12-.48-.1-.13-.11-.59-.05-1.39.19-2.46.29-4.16.29-5.09l.05-1.15v-1.39c.03-.77.06-1.74.07-2.93.02-1.18.07-1.82.17-1.92l-.05-.43c0-.77.12-1.82.36-3.14.24-1.33.36-2.04.36-2.14Z"/>
      <path class="cls-5" d="M107.37,135.08l.05.91c0,.1.1,1.1.29,3.02v.58c0,.77.13,1.92.38,3.46,0,.67.34,1.84,1.01,3.5.16.1.27.32.34.67l-.05.48c.06.16-.02.34-.24.53,0,.22-.3.34-.91.34s-.99.03-1.15.1c-.16.06-.42.03-.77-.1-.13.06-.51-.06-1.15-.38-.29-.06-.51-.35-.67-.86l-.38-.91c0-.58-.16-1.09-.48-1.54,0-.16-.07-.45-.22-.86-.14-.42-.25-.64-.31-.67-.32,1.28-.72,2.27-1.2,2.98,0,.16-.1.35-.29.58l-.48.91c0,.06-.14.24-.43.53-.19.42-.62.62-1.3.62-.61,0-1.34-.16-2.21-.48-.22-.03-.67-.17-1.34-.43-.19.03-.49-.02-.89-.17-.4-.14-.63-.22-.7-.22-.1-.1-.32-.26-.67-.48l-.82-.86s-.09-.18-.17-.46c-.08-.27-.1-.46-.07-.58.03-.11.03-.28,0-.5-.03-.22-.02-.45.05-.67,0-.64.06-1.34.19-2.11-.03-.1-.05-.21-.05-.34s.06-.37.19-.72c-.03-.16-.05-.27-.05-.34l.24-1.87c0-.45.02-.77.05-.96v-.72c.03-.13.05-.3.05-.53l.24-2.3c0-.35.02-.58.05-.67v-.48c.06-.06.1-.32.1-.77l.43-1.34.34-.58c.03-.13.21-.27.53-.43.51-.32,1.25-.48,2.21-.48.38.06.8.22,1.25.48.1-.03.32.03.67.19.64.29.67,1.1.1,2.45-.13.86-.19,1.31-.19,1.34-.13.26-.19.46-.19.62-.19,1.02-.29,1.57-.29,1.63.13-.13.08.06-.14.58l-.19,1.78c-.22.77-.32,1.62-.29,2.54l-.19.62c.03.16.02.66-.05,1.49.06.1.1.21.1.34l.05.38c-.03.1-.02.18.05.26.06.08.25.11.55.1.3-.02.57-.09.79-.22.45-.54.75-1.11.91-1.7.16-.59.24-.94.24-1.03.54-1.38.88-2.18,1.01-2.4.16-.86.43-1.86.82-2.98-.06-.16-.06-.48,0-.96l.62-2.54c.29-.48.43-.78.43-.89s.19-.55.58-1.32c0-.13.1-.38.29-.77.22-.35.62-.69,1.2-1.01h.14c.7-.06,1.31.03,1.82.29.06.13.1.35.1.67.06.32.13.9.19,1.73v.48l-.19,1.06c.26.8.29,1.6.1,2.4Z"/>
      <path class="cls-5" d="M130.7,138.78c-.1.8-.13,1.28-.1,1.44l-.14,1.01v.86c.06,1.89.13,3.22.19,3.98.16.64.24,1.12.24,1.44,0,.58-.45,1.04-1.34,1.39-.54.22-1.15.34-1.82.34s-1.17-.26-1.49-.77l-.34-1.15-.19-1.1-.14-.38c0-.16-.05-.38-.14-.67l-.1-1.34c0-.77.02-1.44.05-2.02v-.34c0-.13.04-.32.12-.58.08-.26.09-.56.02-.91.19-1.63.28-2.66.26-3.07-.02-.42,0-.86.07-1.32.06-.46.06-.94,0-1.42.16-.58.27-1.14.34-1.68-.61-.03-1.65,0-3.12.1-1.6.1-3.31.32-5.14.67-.13.38-.21.83-.24,1.34-.03.51-.08,1.16-.14,1.94-.06.78-.1,1.37-.1,1.75v1.63c-.1.74-.13,1.22-.1,1.44l-.14,1.01v.86c.06,1.89.13,3.2.19,3.94.16.64.24,1.14.24,1.49,0,.54-.45,1.01-1.34,1.39-.7.19-1.35.29-1.94.29s-1.05-.24-1.37-.72l-.34-1.15-.19-1.15-.14-.38c0-.13-.05-.34-.14-.62l-.1-1.34c0-.8.02-1.47.05-2.02v-.34c0-.13.04-.32.12-.58.08-.26.09-.58.02-.96.19-1.6.28-2.62.26-3.07-.02-.45,0-.89.07-1.32.06-.43.06-.89,0-1.37.1-.45.16-.71.19-.79.03-.08.08-.38.14-.89h-1.63c-.77,0-1.25-.02-1.44-.05-.93,0-1.52-.26-1.78-.77-.19-.54-.06-1.15.38-1.82.06-.16.34-.26.82-.29.74,0,2.05-.19,3.94-.58.06-.26.1-.48.1-.67l.24-1.68c0-.29.1-.86.29-1.73,0-.42.06-.82.19-1.2,0-.29.05-.77.14-1.44.26-1.31.4-2.29.43-2.93.22-.42.35-.69.38-.82-.13-.16-.08-.38.14-.67l.14-.29c.06-.38.51-.98,1.34-1.78l1.25-.72c.19-.26.96-.59,2.3-1.01.29-.16.9-.1,1.82.19.1.03.38.03.84,0,.46-.03.82,0,1.08.1.26.1.43.14.53.14l1.1.14c1.47.48,2.53.93,3.17,1.34.19-.32.45-.63.77-.94.32-.3.58-.49.77-.55l.86-.58c.35-.38,1.08-.69,2.18-.91s2.06-.21,2.86.05c.42,0,.75.05,1.01.14.26.1.45.14.58.14l1.15.19c1.09.45,1.71.79,1.87,1.03.16.24.21.47.14.7-.38,1.15-1.25,1.63-2.59,1.44l-2.06.1c-1.06.38-1.81,1.04-2.26,1.97-.54.8-.91,1.77-1.1,2.9-.19,1.14-.33,1.83-.41,2.09-.08.26-.17.54-.26.86-.1.22-.21.67-.34,1.32-.13.66-.14,1.06-.05,1.22.32,0,.58-.02.77-.05.22-.22.77-.24,1.63-.05l.96-.05c1.76,0,2.83.32,3.22.96.22.32.22.71-.02,1.18-.24.46-.58.78-1.03.94l-4.66.58-1.49.29c-.16.45-.26.98-.29,1.58-.03.61-.08,1.25-.14,1.92-.06.67-.1,1.18-.1,1.54v1.63ZM121,129.37l.96-.05c.93,0,2.43-.21,4.51-.62.06-.26.1-.54.1-.86l.24-1.2c0-.32.1-.9.29-1.73,0-.42.06-.82.19-1.2,0-.32.05-.74.14-1.27.1-.53.18-1.11.24-1.75.1-.13.15-.33.17-.6.02-.27.07-.57.17-.89-.86-.19-1.84-.32-2.93-.38-1.47.19-2.29.37-2.45.53-.7.61-1.18,1.14-1.44,1.58-.29.48-.62,1.26-1.01,2.35-.16.06-.29.32-.38.77-.06.51-.24,1.15-.53,1.92-.22.61-.42,1.3-.58,2.09-.16.78-.19,1.26-.1,1.42.32,0,.58-.02.77-.05.22-.22.77-.24,1.63-.05Z"/>
      <path class="cls-5" d="M136.5,135.8c-.06-.61-.08-1.01-.05-1.2v-1.25l.24-2.02c0-.06.26-.96.77-2.69.19-.38.43-.78.72-1.2.19-.35.61-.59,1.25-.72.16-.16.94-.06,2.35.29.19.19.32,1.25.38,3.17l-.05,2.06v2.69l-.24,1.97-.14,3.41c.1.16.12.4.07.72-.05.32-.02.9.07,1.73.22,1.54.5,2.43.82,2.69.06.06.34.03.82-.1l1.01-1.97.53-1.63v-.05l.19-.43c.1-.61.27-1.12.53-1.54-.06-.35.19-1.31.77-2.88l-.05-.43.14-.77-.14-1.68c-.19-1.02-.29-1.78-.29-2.26l-.19-1.78c0-.51.1-1.33.29-2.45.13-.19.29-.33.48-.41.19-.08.7-.23,1.54-.46.19.03.44.07.74.12.3.05.62.17.94.36.38.06.62.18.72.34.1.22.19,1.09.29,2.59.1.86.14,1.63.14,2.3.1,1.09.14,2.08.14,2.98l.05.91v.67c-.06.61-.07,1.26-.02,1.94.05.69.07,1.06.07,1.13.1,1.6.14,2.69.14,3.26.06,2.43.09,3.8.07,4.1-.02.3,0,.52.07.65l-.1,1.49c0,1.18-.08,2.26-.24,3.22,0,.38-.03.74-.1,1.06-.13.7-.24,1.41-.34,2.11l-.53.86c-.22.19-.34.31-.34.36s-.02.09-.05.12c-.1.19-.62.61-1.58,1.25-.26.1-.5.23-.74.41-.24.17-.66.33-1.27.46-1.06.13-2.16-.02-3.31-.43l-1.15-.38c-1.79-.9-2.74-1.43-2.86-1.61-.11-.18-.17-.33-.17-.46-.48-1.22-.43-2.11.14-2.69.58-.58,1.47-.48,2.69.29.03.06.56.4,1.58,1.01.74.29,1.26.46,1.58.53l.67-.14.38-.48.34-.58c0-.06.1-.24.29-.53,0-.19.11-.69.34-1.49-.03-.16-.02-.48.05-.96.06-.48.1-.82.1-1.01v-1.25c.06-.16.06-.66,0-1.49.03,0,.05-.14.05-.43,0-.35-.03-.75-.1-1.2-.16.45-.4.99-.72,1.63l-.82.77c-.13.26-.29.42-.48.48-.19.06-.66.06-1.39,0,0,.03-.14.1-.43.19-.7.03-1.23,0-1.58-.1-.35,0-.62-.03-.82-.1-.45,0-.86-.18-1.25-.53-.96-.19-1.71-1.2-2.26-3.02-.26-2.02-.38-3.22-.36-3.62.02-.4-.04-1.03-.17-1.9v-1.06c-.06-.1-.13-.55-.19-1.37-.06-.82-.08-1.35-.05-1.61Z"/>
      <path class="cls-5" d="M160.31,132.25c.03-.77.04-1.23.02-1.39-.02-.16-.02-.27-.02-.34l.14-1.3c0-.48-.03-.85-.1-1.1.03-.13.05-.38.05-.77.06-.13.1-.31.1-.55s.08-1.16.24-2.76c-.7.16-1.17.27-1.39.34l-1.92.1c-.86.26-1.49.38-1.87.38-.9.26-1.42.37-1.58.34-.8.06-1.33,0-1.58-.19-.35-.42-.53-1.01-.53-1.78-.13-.67-.14-1.12-.05-1.34.35-.48.58-.76.7-.84.11-.08.39-.17.84-.26.45-.1.88-.32,1.3-.67l2.59-1.06c1.5-.29,2.45-.53,2.83-.72.16,0,.51-.05,1.06-.14.54-.1.88-.14,1.01-.12.13.02.35-.07.67-.26l3.07-.29s.21.06.53.1c.48.06,1.07-.02,1.78-.24.51.06.94.08,1.3.05.16.06.64-.03,1.44-.29.19,0,.37-.02.53-.07.16-.05.53-.14,1.1-.26.35,0,.64.08.86.24.16-.03.34.06.55.29.21.22.42.53.65.91.51.77.82,1.22.91,1.34.42.67.69,1.36.82,2.06.13.26.16.43.1.53-.06.1-.29.18-.67.24-.16-.13-.35-.18-.58-.17-.22.02-.91.1-2.06.26l-.82-.05c-.77.19-1.74.29-2.93.29l-2.98.1-.29.14c-.19,2.37-.26,3.9-.19,4.61.16,1.22.21,1.86.14,1.92v.96c.32,5.76.5,8.75.55,8.98.05.22.07.67.07,1.34l.34,3.89c.19.22.3.59.34,1.1.03.67-.14,1.07-.53,1.2-.67.22-1.22.42-1.63.6-.42.18-1.07.2-1.97.07,0-.1-.37-.26-1.1-.48,0-.03-.21-.27-.62-.72-.13-.16-.19-.38-.19-.67-.19-.77-.29-1.79-.29-3.07-.19-.9-.22-1.57-.1-2.02-.03-.03-.14-.58-.34-1.63v-1.78c0-.26-.08-.51-.24-.77l-.05-1.49v-2.78Z"/>
      <path class="cls-5" d="M189.21,133.88c0,1.7.17,3.25.53,4.66.16,1.41.45,2.91.86,4.51.1.64.13.96.1.96.8,1.76,1.25,2.81,1.34,3.14.1.34.08.62-.05.84v-.05c-.1.29-.39.55-.89.79-.5.24-.94.39-1.32.46-1.22.38-1.94-.08-2.16-1.39-.13-.1-.31-.29-.55-.6-.24-.3-.38-.56-.41-.77-.03-.21-.14-.41-.34-.6-.06-.16-.21-.37-.43-.62-.22-.26-.35-.51-.38-.77l-.14-1.3-.1-.05c-.51,1.06-.85,1.79-1.01,2.21-.38,1.09-1.06,2.34-2.02,3.74-1.09,1.22-2.42,1.57-3.98,1.06-.58-.03-1.03-.21-1.37-.53-.34-.32-.57-.5-.7-.53-.19-.06-.46-.3-.82-.72-.58-.77-.93-1.9-1.06-3.41v-1.25c.1-.16.1-.93,0-2.3v-.29c-.19-.96-.29-1.54-.29-1.73s.03-.45.1-.77c.06-.32.08-.52.05-.6-.03-.08-.05-.22-.05-.41v-.72l.24-2.59c.35-1.12.74-2.13,1.15-3.02.13-.54.37-.98.72-1.3.8-.86,1.23-1.36,1.3-1.49.22-.48,1.06-.86,2.5-1.15l.82.05c.32,0,.61.04.86.12.26.08.43.12.53.12.45.22.82.34,1.1.34s.77.22,1.44.67c.19.03.67.3,1.44.82.83.54,1.31.85,1.44.91l1.25.43c.35.29.53.45.53.48s-.08.91-.24,2.64ZM183.59,135.85c.03-.1.1-.66.19-1.68-.06-.1-.14-.45-.24-1.06-.26-.51-.59-.9-1.01-1.15-.51-.22-.82-.34-.91-.34-.29.1-.49.2-.6.31-.11.11-.38.57-.82,1.37-.43.8-.78,2.13-1.06,3.98-.27,1.86-.41,3.2-.41,4.03s.03,1.85.1,3.05c.06,1.2.32,1.77.77,1.7.42-.06.99-1.22,1.73-3.46.03-.16.14-.45.34-.86l1.92-5.9Z"/>
      <path class="cls-5" d="M198.33,133.35l-.82,8.02v.55c0,.18.02.33.05.46-.03.13-.05.29-.05.48v3.46c.13,1.09.13,1.73,0,1.92-.19.06-.42.17-.67.31-.26.14-.74.18-1.46.1-.72-.08-1.24-.2-1.56-.36l-.58-.14c-.32,0-.53-.14-.62-.43-.42-.26-.64-.59-.67-1.01-.1-.16.02-.38.34-.67-.03-.16-.1-.39-.19-.7-.1-.3-.13-.58-.1-.84.1-.16.05-.4-.14-.72,0-.35.05-.75.14-1.2.13-.13.16-.59.1-1.39.22-.32.34-.77.34-1.34-.13-.51-.08-1.02.14-1.54.22-.51.35-1.02.38-1.54.06-.8.21-1.58.43-2.35,0-.32.15-.83.46-1.54.3-.7.5-1.12.6-1.25l.77-.77.86-.34h.05c.38-.13.77-.11,1.15.05.93.35,1.49.62,1.68.82-.13.13-.21.32-.24.58-.03.26-.06.48-.1.67-.13.16-.22.4-.29.72ZM198.42,121.21h.14c1.12.06,1.85.39,2.18.98.34.59.46,1.16.38,1.7-.08.54-.51,1.22-1.29,2.02-.79.8-1.5,1.18-2.14,1.15-.19,0-.57-.1-1.13-.29-.56-.19-.86-.3-.89-.34-.03-.13-.13-.22-.29-.29-.83-.32-1.3-1.14-1.39-2.45,0-.13.1-.22.29-.29-.13,0-.14-.19-.05-.58.22-.7.72-1.17,1.49-1.39.99-.19,1.89-.27,2.69-.24Z"/>
      <path class="cls-5" d="M205.58,117.08l1.2-.24c.77.1,1.35.3,1.75.62.4.32.58.69.55,1.1-.48,1.63-.86,3.34-1.15,5.14v.72c-.13,1.5-.3,2.78-.53,3.84l-1.15,10.94v3.31c-.03,2.53.11,4.53.43,6l.1.58c-.03.38-.31.65-.84.79-.53.14-.87.2-1.03.17s-.34-.08-.53-.14l-1.3-.48c-.51-.26-1.07-.72-1.68-1.39-.38-.35-.54-.61-.48-.77-.06-.13-.22-1.58-.48-4.37.06-.58.1-1.06.1-1.44v-.82c0-.64.02-1.1.05-1.39,0-.06.03-.45.1-1.15.16-1.82.25-2.82.29-2.98v-.77c0-1.89.16-3.41.48-4.56-.06-.26-.1-.5-.1-.72.32-.61.43-1.86.34-3.74.54-1.92.86-3.21.96-3.86.1-.66.24-1.16.43-1.51,0-.58.26-1.16.77-1.75.51-.59,1.09-.97,1.73-1.13Z"/>
      <path class="cls-5" d="M106.57,188.38c-.17.17-.7.26-1.59.26-.62.12-1.34.02-2.18-.3l-.78-.26-1.15-.55c-.1,0-.16,0-.19.02-.02.01-.09-.02-.19-.09-.15-.12-.32-.22-.52-.3-.49-.35-.84-.65-1.04-.93-.79-1.26-1.18-2.31-1.18-3.14,0-.1.12-.28.37-.55.49-.59,1.11-.89,1.85-.89.3.03.53.12.7.3l1.22,1.59c.2.2.42.39.67.59l.48.52.74.63c.1.05.2.07.3.07.1.05.37.11.81.19.49-.12.91-.26,1.26-.41.22-.22.42-.39.59-.52l.52-.59s.14-.25.26-.59c0-.32,0-.54.02-.65.01-.11-.03-.41-.13-.91-.02-.07-.2-.27-.52-.59-.15-.3-.36-.62-.63-.96-.15-.15-.86-.54-2.15-1.18l-.7-.41-.67-.59c-.32-.1-.78-.43-1.37-1-.25-.17-.43-.31-.56-.41-.15-.05-.55-.47-1.22-1.26,0-.05-.21-.52-.63-1.41l-.33-1.44.15-.96c-.15-.64-.2-1.12-.15-1.44.1-.15.22-.44.37-.89-.07-.37.26-1.1,1-2.18,0-.15.54-.74,1.63-1.78l1.26-.67.59-.26c.22-.02.52-.06.91-.11.38-.05.96-.05,1.72,0s1.25.15,1.44.3c.17.07.67.41,1.48,1,1.08.96,1.68,1.83,1.78,2.59.42,1.26.44,2.6.07,4.03,0,.1-.35.3-1.04.59l-.93-.04c-.79-.1-1.54-.5-2.26-1.22-.2-.12-.35-.47-.44-1.04-.02-.59-.15-.95-.37-1.07-.02-.02-.12-.25-.3-.67-.42-.54-.7-.81-.83-.81s-.29.04-.46.11c-.89.72-1.36,1.52-1.41,2.41-.17.72.05,1.59.67,2.63.27.39.44.59.52.59.15.25.43.56.85.93l.52.55,1.55,1.15.63.63.7.44c.39.17.78.41,1.15.7.49.37,1.1,1.06,1.81,2.07.15.22.35.89.59,2v1.44l-.19.85c-.12.12-.26.37-.41.74,0,.03-.14.36-.41,1-.07.12-.37.38-.89.78-.74.59-1.57,1.04-2.48,1.33-.2.05-.51.06-.92.04Z"/>
      <path class="cls-5" d="M116.08,174.32l.04-.33c-.52-.05-.88-.09-1.09-.13-.21-.04-.55-.08-1.02-.13-.47-.05-.84-.12-1.11-.22-.52-.17-.81-.62-.89-1.35-.07-.73.16-1.18.7-1.35.49-.12.84-.18,1.04-.18s.57-.02,1.11-.07c.27-.15.64-.23,1.11-.26l.56-.15s.1,0,.3-.07l.19-.78c0-.39.11-.79.33-1.18,0-.17.16-.65.48-1.44,0-.1.22-.81.67-2.15.1-.12.47-.41,1.11-.85.39-.2.95-.06,1.67.41.39.17.67.41.81.7-.15.15-.22.49-.22,1.04-.02.17-.2,1.09-.52,2.74v1.04c.2.02.52.09.98.18.46.1,1,.21,1.65.33,1.23.25,2.01.74,2.33,1.48.12.54.1.92-.07,1.15-.17.22-.59.38-1.26.48-.54.02-1.25.04-2.13.04s-1.52.06-1.94.18c-.05.44-.07.79-.07,1.04l-.04.55c0,.17-.11,1.09-.33,2.74-.15.22-.27,1.37-.37,3.44v2.7c0,.44.04.86.11,1.26.02.54.09.92.18,1.15,0,.22.06.69.19,1.41-.3.71-.78,1.07-1.46,1.07s-1.28-.25-1.79-.74l-.41-.59c-.07-.2-.13-.33-.17-.41-.04-.07-.07-.16-.09-.26-.17-.49-.31-.8-.41-.92-.15-.2-.22-.35-.22-.44v-.37c-.05-.42-.11-.78-.19-1.07-.12-.12-.19-.54-.19-1.26.05-1.31.05-2.06,0-2.26.07-.07.09-.54.04-1.41l.11-.81c0-.1.05-.47.15-1.11-.05-.1-.06-.36-.04-.8.02-.43.06-.73.11-.91.05-.3.07-.67.07-1.11Z"/>
      <path class="cls-5" d="M137.25,177.13l.04.7c0,.07.07.85.22,2.33v.44c0,.59.1,1.48.3,2.66,0,.52.26,1.42.78,2.7.12.07.21.25.26.52l-.04.37c.05.12-.01.26-.19.41,0,.17-.23.26-.7.26s-.76.02-.89.07-.32.02-.59-.07c-.1.05-.4-.05-.89-.3-.22-.05-.39-.27-.52-.67l-.3-.7c0-.44-.12-.84-.37-1.18,0-.12-.06-.34-.17-.67-.11-.32-.19-.49-.24-.52-.25.99-.56,1.75-.92,2.29,0,.12-.07.27-.22.44l-.37.7s-.11.19-.33.41c-.15.32-.48.48-1,.48-.47,0-1.04-.12-1.7-.37-.17-.03-.52-.14-1.04-.33-.15.02-.38-.02-.68-.13-.31-.11-.49-.17-.54-.17-.07-.07-.25-.2-.52-.37l-.63-.67s-.07-.14-.13-.35c-.06-.21-.08-.36-.06-.44.02-.09.02-.22,0-.39-.02-.17-.01-.34.04-.52,0-.49.05-1.04.15-1.63-.02-.07-.04-.16-.04-.26s.05-.28.15-.56c-.02-.12-.04-.21-.04-.26l.19-1.44c0-.35.01-.59.04-.74v-.56c.02-.1.04-.23.04-.41l.19-1.78c0-.27.01-.44.04-.52v-.37s.07-.25.07-.59l.33-1.04.26-.44c.02-.1.16-.21.41-.33.39-.25.96-.37,1.7-.37.3.05.62.17.96.37.07-.02.25.02.52.15.49.22.52.85.07,1.89-.1.67-.15,1.01-.15,1.04-.1.2-.15.36-.15.48-.15.79-.22,1.21-.22,1.26.1-.1.06.05-.11.44l-.15,1.37c-.17.59-.25,1.25-.22,1.96l-.15.48c.02.12.01.51-.04,1.15.05.07.07.16.07.26l.04.3c-.02.07-.01.14.04.2.05.06.19.09.43.07s.44-.07.61-.17c.34-.42.58-.86.7-1.31.12-.46.19-.72.19-.8.42-1.06.68-1.68.78-1.85.12-.67.33-1.43.63-2.29-.05-.12-.05-.37,0-.74l.48-1.96c.22-.37.33-.6.33-.68s.15-.42.44-1.02c0-.1.07-.3.22-.59.17-.27.48-.53.92-.78h.11c.54-.05,1.01.03,1.41.22.05.1.07.27.07.52.05.25.1.69.15,1.33v.37l-.15.81c.2.62.22,1.23.07,1.85Z"/>
      <path class="cls-5" d="M149.57,161.96c.52-.07.83-.1.94-.09.11.01.36-.02.76-.09.52.62.84,1.07.96,1.37l.26.96c.2.2.3.38.3.56.05.37.09.68.13.94s.06.61.06,1.05c0,.64-.09,2.09-.26,4.35-.17,2.26-.33,3.88-.48,4.87l.22,2.04c.37,2.02.6,3.12.7,3.29.15.94.46,1.8.92,2.59l.07.3.56.92c.17.37.25.74.24,1.11-.01.37-.06.63-.13.78-.35.69-.69,1.06-1.04,1.11-.17.07-.44.07-.81,0-.32,0-.56-.07-.7-.22-.07,0-.17-.01-.3-.04-.37.07-.6-.01-.7-.26-.15-.15-.31-.41-.5-.8-.19-.38-.4-.71-.65-.98l-.19-.41c-.1-.44-.15-.67-.17-.68-.01-.01-.03-.07-.06-.17l-1.29,2.04c-.05.17-.37.67-.96,1.48l-.48.41c-.3.15-.73.18-1.29.11-.05.02-.26.04-.63.04l-2.07-.37c-.44-.3-.83-.77-1.15-1.41-.2-.35-.3-.63-.3-.85,0-.25-.11-.73-.33-1.44l-.07-.55v-.22l-.04-.52c.05-.1.02-.31-.07-.63l-.04-.33v-.63c0-.15.04-.43.11-.85.02-.32.03-.68.02-1.09-.01-.41,0-.7.02-.87-.05-.25-.04-.46.04-.63-.05-.17-.04-.47.04-.89,0-.27.21-.89.63-1.85-.07-.39.1-.84.52-1.33,0-.02.12-.21.37-.55.07-.07.26-.17.55-.3l.89-.59c.94-.27,1.8-.32,2.59-.15l1.48.52c.05-.37.04-1.59-.04-3.66,0-.3.04-.94.13-1.94.09-1,.15-1.97.2-2.91l.44-1.55c0-.27.05-.47.15-.59l.44-.37ZM144.9,181.05c0,.32-.02.72-.07,1.18-.05.47.07,1.22.37,2.26.12.72.25,1.17.37,1.37.17,0,.33-.19.48-.56,0-.02.09-.2.26-.52.07-.02.32-.37.74-1.04.15-.3.3-.59.44-.89.07-.52.25-.98.52-1.39.27-.41.48-.76.63-1.07.15-.31.21-.72.19-1.24,0-.2-.09-.79-.26-1.78-.05-.12-.14-.4-.28-.83-.14-.43-.31-.74-.52-.92-.21-.19-.43-.27-.65-.24-.22.03-.49.37-.81,1.04-.4.79-.68,1.55-.85,2.29-.17.74-.28,1.18-.33,1.33-.07.22-.11.42-.11.59l-.11.41Z"/>
      <path class="cls-5" d="M157.97,163.44s.26-.06.7-.11c.72-.12,1.21-.08,1.5.13.28.21.49.44.61.68.05.79-.06,1.81-.33,3.07-.27.81-.51,1.42-.7,1.81l-.37.55c-.07.2-.23.41-.48.63-.25.22-.43.33-.54.31-.11-.01-.3-.1-.56-.26-.26-.16-.41-.28-.46-.35-.02-.07-.05-.16-.07-.26l-.19-.74-.74-.92c-.15-.3-.22-.59-.22-.89-.07-.69.01-1.22.26-1.59,0-.05.04-.17.11-.37.12-.54.62-1.11,1.48-1.7ZM156.86,180.05c0-.22.04-.52.13-.91.09-.38.11-.65.07-.8-.04-.15-.04-.57-.02-1.26.07-.3.09-.63.04-1-.17-.54-.22-.94-.15-1.18.07-.25.23-.52.48-.83.25-.31.52-.52.81-.65.3-.12.74-.11,1.33.04.15.07.39.32.74.74.07.07.17.36.28.85.11.49.18,1.03.22,1.61.04.58.07,1.42.09,2.52.02,1.1.07,2.57.15,4.4.07,1.84.09,2.98.06,3.42-.04.44-.2.78-.48,1.02s-.53.28-.74.15c-.21-.14-.43-.23-.65-.28-.4,0-.74-.16-1.04-.48-.1-.03-.33-.14-.7-.35-.37-.21-.6-.6-.7-1.17-.12-.25-.16-1.05-.11-2.4v-1.33l.19-1.26v-.85Z"/>
      <path class="cls-5" d="M163.96,176.98c.02-.2.1-.38.22-.55l-.04-.22c.1-.35.16-.54.19-.59.02-.05.06-.05.11,0-.02-.1-.01-.17.04-.22.07-.22.19-.48.35-.78.16-.3.25-.48.28-.56.15-.42.38-.69.7-.81,0-.2.35-.33,1.04-.41.79-.27,1.43-.32,1.92-.15.25-.15.62-.09,1.11.19.37.15.76.37,1.18.67.37.25.68.52.93.81.35.15.57.4.67.74.69,1.65,1.04,3.11,1.04,4.37l-.07.41c0,.35-.03.56-.09.65-.06.09-.09.22-.09.39.05.02.05.14,0,.33,0,.12-.2.92-.59,2.4l-.59,1.22s-.06.14-.19.26v.22s-.06.15-.18.3c-.25.49-.49.86-.74,1.11-.4.64-.73,1.11-1,1.41l-.3.41-.44-.04c-.07.12-.14.18-.2.18s-.24-.05-.54-.15l.3-.04c-.2.02-.35.01-.46-.04-.11-.05-.22-.07-.31-.07-.47-.25-.8-.33-1-.26-.1,0-.47-.1-1.11-.3l-1.04-.19-.81-.3c-.22-.12-.43-.27-.63-.44-.07-.15-.11-.27-.11-.37l-.22-.74s-.02-.17-.07-.37v-.96c.05-.25.07-.48.07-.7-.05-.12-.05-.38,0-.78v-.41c0-.07.01-.21.04-.41-.02-.12-.01-.39.04-.81.05-.42.07-.8.07-1.15,0-.32.05-.76.15-1.33.07-.17.12-.49.15-.94.02-.46.11-.78.26-.98ZM166.51,180.94c-.12.86-.19,1.67-.19,2.41s.05,1.26.15,1.55c.02.22.07.37.15.44.12.05.3.05.52,0,.35-.15.52-.31.52-.48.72-.69,1.12-1.15,1.22-1.37.1-.22.17-.36.22-.41.1-.12.16-.28.19-.48.12-.12.2-.21.22-.26-.02-.07.02-.28.15-.63-.1-.17-.09-.3.02-.39.11-.09.17-.34.17-.76l.15-1.18c0-.15.01-.26.04-.33-.02-.1-.02-.25.02-.46.04-.21.04-.55.02-1.02s-.11-.78-.26-.93l-.07-.22c-.05-.17-.25-.3-.59-.37l-.3-.15c.07.15,0,.35-.22.59-.96,1.31-1.67,2.79-2.11,4.44Z"/>
    </g>
  </g>
</svg>